<?xml version="1.0" encoding="UTF-8" standalone="no"?>
<!-- Created with matplotlib (https://matplotlib.org/) -->

<svg
   height="531.215071pt"
   version="1.1"
   viewBox="0 0 572.4 531.215071"
   width="572.4pt"
   id="svg203"
   sodipodi:docname="Ven_diagram_alldiseases_bestmodels.svg"
   inkscape:version="1.2.2 (b0a8486541, 2022-12-01)"
   xmlns:inkscape="http://www.inkscape.org/namespaces/inkscape"
   xmlns:sodipodi="http://sodipodi.sourceforge.net/DTD/sodipodi-0.dtd"
   xmlns:xlink="http://www.w3.org/1999/xlink"
   xmlns="http://www.w3.org/2000/svg"
   xmlns:svg="http://www.w3.org/2000/svg">
  <sodipodi:namedview
     id="namedview205"
     pagecolor="#ffffff"
     bordercolor="#000000"
     borderopacity="0.25"
     inkscape:showpageshadow="2"
     inkscape:pageopacity="0.0"
     inkscape:pagecheckerboard="0"
     inkscape:deskcolor="#d1d1d1"
     inkscape:document-units="pt"
     showgrid="false"
     inkscape:zoom="1.1464283"
     inkscape:cx="381.1839"
     inkscape:cy="354.57953"
     inkscape:window-width="1920"
     inkscape:window-height="999"
     inkscape:window-x="0"
     inkscape:window-y="0"
     inkscape:window-maximized="1"
     inkscape:current-layer="figure_1" />
  <defs
     id="defs4">
    <style
       type="text/css"
       id="style2">
*{stroke-linecap:butt;stroke-linejoin:round;}
  </style>
  </defs>
  <g
     id="figure_1">
    <g
       id="patch_1">
      <path
         d="M 0 531.215071  L 572.4 531.215071  L 572.4 0  L 0 0  z "
         style="fill:#ffffff;"
         id="path6" />
    </g>
    <g
       id="axes_1">
      <g
         id="patch_2"
         style="fill:#c44e52;fill-opacity:1">
        <path
           clip-path="url(#p345a2e76e6)"
           d="M 286.2 96.092541  C 272.201606 78.807416 254.150669 65.241889 233.654085 56.603563  C 213.157502 47.965238 190.842073 44.518281 168.694321 46.569542  C 146.546569 48.620803 125.243788 56.107552 106.682355 68.363318  C 88.120922 80.619084 72.868459 97.269076 62.282742 116.831111  C 51.697025 136.393145 46.101774 158.269 45.995078 180.511284  C 45.888381 202.753569 51.273503 224.682096 61.671059 244.344788  C 72.068614 264.007479 87.160639 280.803034 105.603638 293.236311  C 124.046638 305.669587 145.276612 313.360366 167.403666 315.624013  C 173.409647 292.824327 185.277927 271.988011 201.825163 255.192581  C 218.372398 238.397151 239.029726 226.220002 261.737476 219.875275  C 255.439971 198.810256 254.376216 176.523386 258.638793 154.954333  C 262.901371 133.38528 272.362925 113.17847 286.2 96.092541  "
           style="fill:#c44e52;opacity:0.4;fill-opacity:1"
           id="path9" />
      </g>
      <g
         id="patch_3">
        <path
           clip-path="url(#p345a2e76e6)"
           d="M 286.2 96.092541  C 299.563664 112.593905 308.85273 132.014455 313.311839 152.774967  C 317.770949 173.53548 317.275866 195.057547 311.866849 215.591058  C 338.463995 218.312006 363.665229 228.864141 384.266114 245.905716  C 404.866998 262.947291 419.955724 285.724036 427.613699 311.339796  C 448.097634 305.616421 466.944421 295.138293 482.616629 280.760168  C 498.288838 266.382043 510.348401 248.505816 517.811557 228.589745  C 525.274712 208.673673 527.932852 187.274448 525.569137 166.137716  C 523.205422 145.000984 515.885923 124.717555 504.207729 106.942055  C 492.529535 89.166556 476.819074 74.395843 458.35793 63.834842  C 439.896785 53.27384 419.200981 47.217749 397.958782 46.160596  C 376.716583 45.103443 355.521747 49.074777 336.103249 57.750636  C 316.684751 66.426494 299.585372 79.564372 286.2 96.092541  "
           style="fill:#55a868;opacity:0.4;fill-opacity:1"
           id="path12" />
      </g>
      <g
         id="patch_4">
        <path
           clip-path="url(#p345a2e76e6)"
           d="M 286.2 96.092541  C 272.362925 113.17847 262.901371 133.38528 258.638793 154.954333  C 254.376216 176.523386 255.439971 198.810256 261.737476 219.875275  C 269.8668 217.603877 278.191043 216.098939 286.60107 215.380191  C 295.011096 214.661443 303.46999 214.732041 311.866849 215.591058  C 317.275866 195.057547 317.770949 173.53548 313.311839 152.774967  C 308.85273 132.014455 299.563664 112.593905 286.2 96.092541  "
           style="fill:#c5ac82;opacity:0.4;fill-opacity:1"
           id="path15" />
      </g>
      <g
         id="patch_5">
        <path
           clip-path="url(#p345a2e76e6)"
           d="M 167.403666 315.624013  C 162.086977 335.807032 161.516648 356.949898 165.737523 377.390193  C 169.958397 397.830487 178.856871 417.018067 191.733278 433.444253  C 204.609684 449.870439 221.117458 463.093126 239.958629 472.072643  C 258.7998 481.052159 279.467263 485.546824 300.335981 485.203232  C 321.204698 484.85964 341.712995 479.687038 360.248348 470.092138  C 378.783702 460.497237 394.847237 446.738281 407.175915 429.897107  C 419.504592 413.055933 427.766589 393.585816 431.312281 373.017648  C 434.857974 352.449481 433.591931 331.33685 427.613699 311.339796  C 402.214331 318.436583 375.284809 317.947099 350.160122 309.931964  C 325.035434 301.916828 302.797398 286.721155 286.2 266.226798  C 272.063532 283.682415 253.796352 297.342017 233.055992 305.966156  C 212.315632 314.590294 189.74897 317.909988 167.403666 315.624013  "
           style="fill:#4c72b0;opacity:0.4;fill-opacity:1"
           id="path18" />
      </g>
      <g
         id="patch_6">
        <path
           clip-path="url(#p345a2e76e6)"
           d="M 167.403666 315.624013  C 189.74897 317.909988 212.315632 314.590294 233.055992 305.966156  C 253.796352 297.342017 272.063532 283.682415 286.2 266.226798  C 280.663118 259.389892 275.806942 252.028708 271.700621 244.24806  C 267.594299 236.467413 264.257413 228.304407 261.737476 219.875275  C 239.029726 226.220002 218.372398 238.397151 201.825163 255.192581  C 185.277927 271.988011 173.409647 292.824327 167.403666 315.624013  "
           style="fill:#be86b5;opacity:0.4;fill-opacity:1"
           id="path21" />
      </g>
      <g
         id="patch_7">
        <path
           clip-path="url(#p345a2e76e6)"
           d="M 311.866849 215.591058  C 309.43633 224.817706 306.035662 233.761118 301.721756 242.271621  C 297.40785 250.782125 292.204907 258.811978 286.2 266.226798  C 302.797398 286.721155 325.035434 301.916828 350.160122 309.931964  C 375.284809 317.947099 402.214331 318.436583 427.613699 311.339796  C 419.955724 285.724036 404.866998 262.947291 384.266114 245.905716  C 363.665229 228.864141 338.463995 218.312006 311.866849 215.591058  "
           style="fill:#71c5c4;opacity:0.4;fill-opacity:1"
           id="path24" />
      </g>
      <g
         id="patch_8">
        <path
           clip-path="url(#p345a2e76e6)"
           d="M 261.737476 219.875275  C 264.257413 228.304407 267.594299 236.467413 271.700621 244.24806  C 275.806942 252.028708 280.663118 259.389892 286.2 266.226798  C 292.204907 258.811978 297.40785 250.782125 301.721756 242.271621  C 306.035662 233.761118 309.43633 224.817706 311.866849 215.591058  C 303.46999 214.732041 295.011096 214.661443 286.60107 215.380191  C 278.191043 216.098939 269.8668 217.603877 261.737476 219.875275  "
           style="fill:#8f9091;opacity:0.4;fill-opacity:1"
           id="path27" />
      </g>
      <g
         id="text_1">
        <!-- 399 -->
        <defs
           id="defs32">
          <path
             d="M 40.578125 39.3125  Q 47.65625 37.796875 51.625 33  Q 55.609375 28.21875 55.609375 21.1875  Q 55.609375 10.40625 48.1875 4.484375  Q 40.765625 -1.421875 27.09375 -1.421875  Q 22.515625 -1.421875 17.65625 -0.515625  Q 12.796875 0.390625 7.625 2.203125  L 7.625 11.71875  Q 11.71875 9.328125 16.59375 8.109375  Q 21.484375 6.890625 26.8125 6.890625  Q 36.078125 6.890625 40.9375 10.546875  Q 45.796875 14.203125 45.796875 21.1875  Q 45.796875 27.640625 41.28125 31.265625  Q 36.765625 34.90625 28.71875 34.90625  L 20.21875 34.90625  L 20.21875 43.015625  L 29.109375 43.015625  Q 36.375 43.015625 40.234375 45.921875  Q 44.09375 48.828125 44.09375 54.296875  Q 44.09375 59.90625 40.109375 62.90625  Q 36.140625 65.921875 28.71875 65.921875  Q 24.65625 65.921875 20.015625 65.03125  Q 15.375 64.15625 9.8125 62.3125  L 9.8125 71.09375  Q 15.4375 72.65625 20.34375 73.4375  Q 25.25 74.21875 29.59375 74.21875  Q 40.828125 74.21875 47.359375 69.109375  Q 53.90625 64.015625 53.90625 55.328125  Q 53.90625 49.265625 50.4375 45.09375  Q 46.96875 40.921875 40.578125 39.3125  z "
             id="DejaVuSans-51" />
          <path
             d="M 10.984375 1.515625  L 10.984375 10.5  Q 14.703125 8.734375 18.5 7.8125  Q 22.3125 6.890625 25.984375 6.890625  Q 35.75 6.890625 40.890625 13.453125  Q 46.046875 20.015625 46.78125 33.40625  Q 43.953125 29.203125 39.59375 26.953125  Q 35.25 24.703125 29.984375 24.703125  Q 19.046875 24.703125 12.671875 31.3125  Q 6.296875 37.9375 6.296875 49.421875  Q 6.296875 60.640625 12.9375 67.421875  Q 19.578125 74.21875 30.609375 74.21875  Q 43.265625 74.21875 49.921875 64.515625  Q 56.59375 54.828125 56.59375 36.375  Q 56.59375 19.140625 48.40625 8.859375  Q 40.234375 -1.421875 26.421875 -1.421875  Q 22.703125 -1.421875 18.890625 -0.6875  Q 15.09375 0.046875 10.984375 1.515625  z M 30.609375 32.421875  Q 37.25 32.421875 41.125 36.953125  Q 45.015625 41.5 45.015625 49.421875  Q 45.015625 57.28125 41.125 61.84375  Q 37.25 66.40625 30.609375 66.40625  Q 23.96875 66.40625 20.09375 61.84375  Q 16.21875 57.28125 16.21875 49.421875  Q 16.21875 41.5 20.09375 36.953125  Q 23.96875 32.421875 30.609375 32.421875  z "
             id="DejaVuSans-57" />
        </defs>
        <g
           transform="translate(109.277531 150.057777)scale(0.1 -0.1)"
           id="g40">
          <use
             xlink:href="#DejaVuSans-51"
             id="use34" />
          <use
             x="63.623047"
             xlink:href="#DejaVuSans-57"
             id="use36" />
          <use
             x="127.246094"
             xlink:href="#DejaVuSans-57"
             id="use38" />
        </g>
      </g>
      <g
         id="text_2">
        <!-- 379 -->
        <defs
           id="defs44">
          <path
             d="M 8.203125 72.90625  L 55.078125 72.90625  L 55.078125 68.703125  L 28.609375 0  L 18.3125 0  L 43.21875 64.59375  L 8.203125 64.59375  z "
             id="DejaVuSans-55" />
        </defs>
        <g
           transform="translate(440.127324 144.888247)scale(0.1 -0.1)"
           id="g52">
          <use
             xlink:href="#DejaVuSans-51"
             id="use46" />
          <use
             x="63.623047"
             xlink:href="#DejaVuSans-55"
             id="use48" />
          <use
             x="127.246094"
             xlink:href="#DejaVuSans-57"
             id="use50" />
        </g>
      </g>
      <g
         id="text_3">
        <!-- 33 -->
        <g
           transform="translate(279.321302 166.724104)scale(0.1 -0.1)"
           id="g59">
          <use
             xlink:href="#DejaVuSans-51"
             id="use55" />
          <use
             x="63.623047"
             xlink:href="#DejaVuSans-51"
             id="use57" />
        </g>
      </g>
      <g
         id="text_4">
        <!-- 372 -->
        <defs
           id="defs63">
          <path
             d="M 19.1875 8.296875  L 53.609375 8.296875  L 53.609375 0  L 7.328125 0  L 7.328125 8.296875  Q 12.9375 14.109375 22.625 23.890625  Q 32.328125 33.6875 34.8125 36.53125  Q 39.546875 41.84375 41.421875 45.53125  Q 43.3125 49.21875 43.3125 52.78125  Q 43.3125 58.59375 39.234375 62.25  Q 35.15625 65.921875 28.609375 65.921875  Q 23.96875 65.921875 18.8125 64.3125  Q 13.671875 62.703125 7.8125 59.421875  L 7.8125 69.390625  Q 13.765625 71.78125 18.9375 73  Q 24.125 74.21875 28.421875 74.21875  Q 39.75 74.21875 46.484375 68.546875  Q 53.21875 62.890625 53.21875 53.421875  Q 53.21875 48.921875 51.53125 44.890625  Q 49.859375 40.875 45.40625 35.40625  Q 44.1875 33.984375 37.640625 27.21875  Q 31.109375 20.453125 19.1875 8.296875  z "
             id="DejaVuSans-50" />
        </defs>
        <g
           transform="translate(289.282876 422.673053)scale(0.1 -0.1)"
           id="g71">
          <use
             xlink:href="#DejaVuSans-51"
             id="use65" />
          <use
             x="63.623047"
             xlink:href="#DejaVuSans-55"
             id="use67" />
          <use
             x="127.246094"
             xlink:href="#DejaVuSans-50"
             id="use69" />
        </g>
      </g>
      <g
         id="text_5">
        <!-- 40 -->
        <defs
           id="defs76">
          <path
             d="M 37.796875 64.3125  L 12.890625 25.390625  L 37.796875 25.390625  z M 35.203125 72.90625  L 47.609375 72.90625  L 47.609375 25.390625  L 58.015625 25.390625  L 58.015625 17.1875  L 47.609375 17.1875  L 47.609375 0  L 37.796875 0  L 37.796875 17.1875  L 4.890625 17.1875  L 4.890625 26.703125  z "
             id="DejaVuSans-52" />
          <path
             d="M 31.78125 66.40625  Q 24.171875 66.40625 20.328125 58.90625  Q 16.5 51.421875 16.5 36.375  Q 16.5 21.390625 20.328125 13.890625  Q 24.171875 6.390625 31.78125 6.390625  Q 39.453125 6.390625 43.28125 13.890625  Q 47.125 21.390625 47.125 36.375  Q 47.125 51.421875 43.28125 58.90625  Q 39.453125 66.40625 31.78125 66.40625  z M 31.78125 74.21875  Q 44.046875 74.21875 50.515625 64.515625  Q 56.984375 54.828125 56.984375 36.375  Q 56.984375 17.96875 50.515625 8.265625  Q 44.046875 -1.421875 31.78125 -1.421875  Q 19.53125 -1.421875 13.0625 8.265625  Q 6.59375 17.96875 6.59375 36.375  Q 6.59375 54.828125 13.0625 64.515625  Q 19.53125 74.21875 31.78125 74.21875  z "
             id="DejaVuSans-48" />
        </defs>
        <g
           transform="translate(219.502444 276.97699)scale(0.1 -0.1)"
           id="g82">
          <use
             xlink:href="#DejaVuSans-52"
             id="use78" />
          <use
             x="63.623047"
             xlink:href="#DejaVuSans-48"
             id="use80" />
        </g>
      </g>
      <g
         id="text_6">
        <!-- 60 -->
        <defs
           id="defs86">
          <path
             d="M 33.015625 40.375  Q 26.375 40.375 22.484375 35.828125  Q 18.609375 31.296875 18.609375 23.390625  Q 18.609375 15.53125 22.484375 10.953125  Q 26.375 6.390625 33.015625 6.390625  Q 39.65625 6.390625 43.53125 10.953125  Q 47.40625 15.53125 47.40625 23.390625  Q 47.40625 31.296875 43.53125 35.828125  Q 39.65625 40.375 33.015625 40.375  z M 52.59375 71.296875  L 52.59375 62.3125  Q 48.875 64.0625 45.09375 64.984375  Q 41.3125 65.921875 37.59375 65.921875  Q 27.828125 65.921875 22.671875 59.328125  Q 17.53125 52.734375 16.796875 39.40625  Q 19.671875 43.65625 24.015625 45.921875  Q 28.375 48.1875 33.59375 48.1875  Q 44.578125 48.1875 50.953125 41.515625  Q 57.328125 34.859375 57.328125 23.390625  Q 57.328125 12.15625 50.6875 5.359375  Q 44.046875 -1.421875 33.015625 -1.421875  Q 20.359375 -1.421875 13.671875 8.265625  Q 6.984375 17.96875 6.984375 36.375  Q 6.984375 53.65625 15.1875 63.9375  Q 23.390625 74.21875 37.203125 74.21875  Q 40.921875 74.21875 44.703125 73.484375  Q 48.484375 72.75 52.59375 71.296875  z "
             id="DejaVuSans-54" />
        </defs>
        <g
           transform="translate(350.922084 275.037811)scale(0.1 -0.1)"
           id="g92">
          <use
             xlink:href="#DejaVuSans-54"
             id="use88" />
          <use
             x="63.623047"
             xlink:href="#DejaVuSans-48"
             id="use90" />
        </g>
      </g>
      <g
         id="text_7">
        <!-- 28 -->
        <defs
           id="defs96">
          <path
             d="M 31.78125 34.625  Q 24.75 34.625 20.71875 30.859375  Q 16.703125 27.09375 16.703125 20.515625  Q 16.703125 13.921875 20.71875 10.15625  Q 24.75 6.390625 31.78125 6.390625  Q 38.8125 6.390625 42.859375 10.171875  Q 46.921875 13.96875 46.921875 20.515625  Q 46.921875 27.09375 42.890625 30.859375  Q 38.875 34.625 31.78125 34.625  z M 21.921875 38.8125  Q 15.578125 40.375 12.03125 44.71875  Q 8.5 49.078125 8.5 55.328125  Q 8.5 64.0625 14.71875 69.140625  Q 20.953125 74.21875 31.78125 74.21875  Q 42.671875 74.21875 48.875 69.140625  Q 55.078125 64.0625 55.078125 55.328125  Q 55.078125 49.078125 51.53125 44.71875  Q 48 40.375 41.703125 38.8125  Q 48.828125 37.15625 52.796875 32.3125  Q 56.78125 27.484375 56.78125 20.515625  Q 56.78125 9.90625 50.3125 4.234375  Q 43.84375 -1.421875 31.78125 -1.421875  Q 19.734375 -1.421875 13.25 4.234375  Q 6.78125 9.90625 6.78125 20.515625  Q 6.78125 27.484375 10.78125 32.3125  Q 14.796875 37.15625 21.921875 38.8125  z M 18.3125 54.390625  Q 18.3125 48.734375 21.84375 45.5625  Q 25.390625 42.390625 31.78125 42.390625  Q 38.140625 42.390625 41.71875 45.5625  Q 45.3125 48.734375 45.3125 54.390625  Q 45.3125 60.0625 41.71875 63.234375  Q 38.140625 66.40625 31.78125 66.40625  Q 25.390625 66.40625 21.84375 63.234375  Q 18.3125 60.0625 18.3125 54.390625  z "
             id="DejaVuSans-56" />
        </defs>
        <g
           transform="translate(280.73008 237.203677)scale(0.1 -0.1)"
           id="g102">
          <use
             xlink:href="#DejaVuSans-50"
             id="use98" />
          <use
             x="63.623047"
             xlink:href="#DejaVuSans-56"
             id="use100" />
        </g>
      </g>
      <g
         id="text_8">
        <!-- Random Forest -->
        <defs
           id="defs117">
          <path
             d="M 44.390625 34.1875  Q 47.5625 33.109375 50.5625 29.59375  Q 53.5625 26.078125 56.59375 19.921875  L 66.609375 0  L 56 0  L 46.6875 18.703125  Q 43.0625 26.03125 39.671875 28.421875  Q 36.28125 30.8125 30.421875 30.8125  L 19.671875 30.8125  L 19.671875 0  L 9.8125 0  L 9.8125 72.90625  L 32.078125 72.90625  Q 44.578125 72.90625 50.734375 67.671875  Q 56.890625 62.453125 56.890625 51.90625  Q 56.890625 45.015625 53.6875 40.46875  Q 50.484375 35.9375 44.390625 34.1875  z M 19.671875 64.796875  L 19.671875 38.921875  L 32.078125 38.921875  Q 39.203125 38.921875 42.84375 42.21875  Q 46.484375 45.515625 46.484375 51.90625  Q 46.484375 58.296875 42.84375 61.546875  Q 39.203125 64.796875 32.078125 64.796875  z "
             id="DejaVuSans-82" />
          <path
             d="M 34.28125 27.484375  Q 23.390625 27.484375 19.1875 25  Q 14.984375 22.515625 14.984375 16.5  Q 14.984375 11.71875 18.140625 8.90625  Q 21.296875 6.109375 26.703125 6.109375  Q 34.1875 6.109375 38.703125 11.40625  Q 43.21875 16.703125 43.21875 25.484375  L 43.21875 27.484375  z M 52.203125 31.203125  L 52.203125 0  L 43.21875 0  L 43.21875 8.296875  Q 40.140625 3.328125 35.546875 0.953125  Q 30.953125 -1.421875 24.3125 -1.421875  Q 15.921875 -1.421875 10.953125 3.296875  Q 6 8.015625 6 15.921875  Q 6 25.140625 12.171875 29.828125  Q 18.359375 34.515625 30.609375 34.515625  L 43.21875 34.515625  L 43.21875 35.40625  Q 43.21875 41.609375 39.140625 45  Q 35.0625 48.390625 27.6875 48.390625  Q 23 48.390625 18.546875 47.265625  Q 14.109375 46.140625 10.015625 43.890625  L 10.015625 52.203125  Q 14.9375 54.109375 19.578125 55.046875  Q 24.21875 56 28.609375 56  Q 40.484375 56 46.34375 49.84375  Q 52.203125 43.703125 52.203125 31.203125  z "
             id="DejaVuSans-97" />
          <path
             d="M 54.890625 33.015625  L 54.890625 0  L 45.90625 0  L 45.90625 32.71875  Q 45.90625 40.484375 42.875 44.328125  Q 39.84375 48.1875 33.796875 48.1875  Q 26.515625 48.1875 22.3125 43.546875  Q 18.109375 38.921875 18.109375 30.90625  L 18.109375 0  L 9.078125 0  L 9.078125 54.6875  L 18.109375 54.6875  L 18.109375 46.1875  Q 21.34375 51.125 25.703125 53.5625  Q 30.078125 56 35.796875 56  Q 45.21875 56 50.046875 50.171875  Q 54.890625 44.34375 54.890625 33.015625  z "
             id="DejaVuSans-110" />
          <path
             d="M 45.40625 46.390625  L 45.40625 75.984375  L 54.390625 75.984375  L 54.390625 0  L 45.40625 0  L 45.40625 8.203125  Q 42.578125 3.328125 38.25 0.953125  Q 33.9375 -1.421875 27.875 -1.421875  Q 17.96875 -1.421875 11.734375 6.484375  Q 5.515625 14.40625 5.515625 27.296875  Q 5.515625 40.1875 11.734375 48.09375  Q 17.96875 56 27.875 56  Q 33.9375 56 38.25 53.625  Q 42.578125 51.265625 45.40625 46.390625  z M 14.796875 27.296875  Q 14.796875 17.390625 18.875 11.75  Q 22.953125 6.109375 30.078125 6.109375  Q 37.203125 6.109375 41.296875 11.75  Q 45.40625 17.390625 45.40625 27.296875  Q 45.40625 37.203125 41.296875 42.84375  Q 37.203125 48.484375 30.078125 48.484375  Q 22.953125 48.484375 18.875 42.84375  Q 14.796875 37.203125 14.796875 27.296875  z "
             id="DejaVuSans-100" />
          <path
             d="M 30.609375 48.390625  Q 23.390625 48.390625 19.1875 42.75  Q 14.984375 37.109375 14.984375 27.296875  Q 14.984375 17.484375 19.15625 11.84375  Q 23.34375 6.203125 30.609375 6.203125  Q 37.796875 6.203125 41.984375 11.859375  Q 46.1875 17.53125 46.1875 27.296875  Q 46.1875 37.015625 41.984375 42.703125  Q 37.796875 48.390625 30.609375 48.390625  z M 30.609375 56  Q 42.328125 56 49.015625 48.375  Q 55.71875 40.765625 55.71875 27.296875  Q 55.71875 13.875 49.015625 6.21875  Q 42.328125 -1.421875 30.609375 -1.421875  Q 18.84375 -1.421875 12.171875 6.21875  Q 5.515625 13.875 5.515625 27.296875  Q 5.515625 40.765625 12.171875 48.375  Q 18.84375 56 30.609375 56  z "
             id="DejaVuSans-111" />
          <path
             d="M 52 44.1875  Q 55.375 50.25 60.0625 53.125  Q 64.75 56 71.09375 56  Q 79.640625 56 84.28125 50.015625  Q 88.921875 44.046875 88.921875 33.015625  L 88.921875 0  L 79.890625 0  L 79.890625 32.71875  Q 79.890625 40.578125 77.09375 44.375  Q 74.3125 48.1875 68.609375 48.1875  Q 61.625 48.1875 57.5625 43.546875  Q 53.515625 38.921875 53.515625 30.90625  L 53.515625 0  L 44.484375 0  L 44.484375 32.71875  Q 44.484375 40.625 41.703125 44.40625  Q 38.921875 48.1875 33.109375 48.1875  Q 26.21875 48.1875 22.15625 43.53125  Q 18.109375 38.875 18.109375 30.90625  L 18.109375 0  L 9.078125 0  L 9.078125 54.6875  L 18.109375 54.6875  L 18.109375 46.1875  Q 21.1875 51.21875 25.484375 53.609375  Q 29.78125 56 35.6875 56  Q 41.65625 56 45.828125 52.96875  Q 50 49.953125 52 44.1875  z "
             id="DejaVuSans-109" />
          <path
             id="DejaVuSans-32" />
          <path
             d="M 9.8125 72.90625  L 51.703125 72.90625  L 51.703125 64.59375  L 19.671875 64.59375  L 19.671875 43.109375  L 48.578125 43.109375  L 48.578125 34.8125  L 19.671875 34.8125  L 19.671875 0  L 9.8125 0  z "
             id="DejaVuSans-70" />
          <path
             d="M 41.109375 46.296875  Q 39.59375 47.171875 37.8125 47.578125  Q 36.03125 48 33.890625 48  Q 26.265625 48 22.1875 43.046875  Q 18.109375 38.09375 18.109375 28.8125  L 18.109375 0  L 9.078125 0  L 9.078125 54.6875  L 18.109375 54.6875  L 18.109375 46.1875  Q 20.953125 51.171875 25.484375 53.578125  Q 30.03125 56 36.53125 56  Q 37.453125 56 38.578125 55.875  Q 39.703125 55.765625 41.0625 55.515625  z "
             id="DejaVuSans-114" />
          <path
             d="M 56.203125 29.59375  L 56.203125 25.203125  L 14.890625 25.203125  Q 15.484375 15.921875 20.484375 11.0625  Q 25.484375 6.203125 34.421875 6.203125  Q 39.59375 6.203125 44.453125 7.46875  Q 49.3125 8.734375 54.109375 11.28125  L 54.109375 2.78125  Q 49.265625 0.734375 44.1875 -0.34375  Q 39.109375 -1.421875 33.890625 -1.421875  Q 20.796875 -1.421875 13.15625 6.1875  Q 5.515625 13.8125 5.515625 26.8125  Q 5.515625 40.234375 12.765625 48.109375  Q 20.015625 56 32.328125 56  Q 43.359375 56 49.78125 48.890625  Q 56.203125 41.796875 56.203125 29.59375  z M 47.21875 32.234375  Q 47.125 39.59375 43.09375 43.984375  Q 39.0625 48.390625 32.421875 48.390625  Q 24.90625 48.390625 20.390625 44.140625  Q 15.875 39.890625 15.1875 32.171875  z "
             id="DejaVuSans-101" />
          <path
             d="M 44.28125 53.078125  L 44.28125 44.578125  Q 40.484375 46.53125 36.375 47.5  Q 32.28125 48.484375 27.875 48.484375  Q 21.1875 48.484375 17.84375 46.4375  Q 14.5 44.390625 14.5 40.28125  Q 14.5 37.15625 16.890625 35.375  Q 19.28125 33.59375 26.515625 31.984375  L 29.59375 31.296875  Q 39.15625 29.25 43.1875 25.515625  Q 47.21875 21.78125 47.21875 15.09375  Q 47.21875 7.46875 41.1875 3.015625  Q 35.15625 -1.421875 24.609375 -1.421875  Q 20.21875 -1.421875 15.453125 -0.5625  Q 10.6875 0.296875 5.421875 2  L 5.421875 11.28125  Q 10.40625 8.6875 15.234375 7.390625  Q 20.0625 6.109375 24.8125 6.109375  Q 31.15625 6.109375 34.5625 8.28125  Q 37.984375 10.453125 37.984375 14.40625  Q 37.984375 18.0625 35.515625 20.015625  Q 33.0625 21.96875 24.703125 23.78125  L 21.578125 24.515625  Q 13.234375 26.265625 9.515625 29.90625  Q 5.8125 33.546875 5.8125 39.890625  Q 5.8125 47.609375 11.28125 51.796875  Q 16.75 56 26.8125 56  Q 31.78125 56 36.171875 55.265625  Q 40.578125 54.546875 44.28125 53.078125  z "
             id="DejaVuSans-115" />
          <path
             d="M 18.3125 70.21875  L 18.3125 54.6875  L 36.8125 54.6875  L 36.8125 47.703125  L 18.3125 47.703125  L 18.3125 18.015625  Q 18.3125 11.328125 20.140625 9.421875  Q 21.96875 7.515625 27.59375 7.515625  L 36.8125 7.515625  L 36.8125 0  L 27.59375 0  Q 17.1875 0 13.234375 3.875  Q 9.28125 7.765625 9.28125 18.015625  L 9.28125 47.703125  L 2.6875 47.703125  L 2.6875 54.6875  L 9.28125 54.6875  L 9.28125 70.21875  z "
             id="DejaVuSans-116" />
        </defs>
        <g
           transform="translate(23.274721 45.993522)scale(0.12 -0.12)"
           id="g145">
          <use
             xlink:href="#DejaVuSans-82"
             id="use119" />
          <use
             x="67.232422"
             xlink:href="#DejaVuSans-97"
             id="use121" />
          <use
             x="128.511719"
             xlink:href="#DejaVuSans-110"
             id="use123" />
          <use
             x="191.890625"
             xlink:href="#DejaVuSans-100"
             id="use125" />
          <use
             x="255.367188"
             xlink:href="#DejaVuSans-111"
             id="use127" />
          <use
             x="316.548828"
             xlink:href="#DejaVuSans-109"
             id="use129" />
          <use
             x="413.960938"
             xlink:href="#DejaVuSans-32"
             id="use131" />
          <use
             x="445.748047"
             xlink:href="#DejaVuSans-70"
             id="use133" />
          <use
             x="499.642578"
             xlink:href="#DejaVuSans-111"
             id="use135" />
          <use
             x="560.824219"
             xlink:href="#DejaVuSans-114"
             id="use137" />
          <use
             x="599.6875"
             xlink:href="#DejaVuSans-101"
             id="use139" />
          <use
             x="661.210938"
             xlink:href="#DejaVuSans-115"
             id="use141" />
          <use
             x="713.310547"
             xlink:href="#DejaVuSans-116"
             id="use143" />
        </g>
      </g>
      <g
         id="text_9">
        <!-- XGBoost -->
        <defs
           id="defs151">
          <path
             d="M 6.296875 72.90625  L 16.890625 72.90625  L 35.015625 45.796875  L 53.21875 72.90625  L 63.8125 72.90625  L 40.375 37.890625  L 65.375 0  L 54.78125 0  L 34.28125 31  L 13.625 0  L 2.984375 0  L 29 38.921875  z "
             id="DejaVuSans-88" />
          <path
             d="M 59.515625 10.40625  L 59.515625 29.984375  L 43.40625 29.984375  L 43.40625 38.09375  L 69.28125 38.09375  L 69.28125 6.78125  Q 63.578125 2.734375 56.6875 0.65625  Q 49.8125 -1.421875 42 -1.421875  Q 24.90625 -1.421875 15.25 8.5625  Q 5.609375 18.5625 5.609375 36.375  Q 5.609375 54.25 15.25 64.234375  Q 24.90625 74.21875 42 74.21875  Q 49.125 74.21875 55.546875 72.453125  Q 61.96875 70.703125 67.390625 67.28125  L 67.390625 56.78125  Q 61.921875 61.421875 55.765625 63.765625  Q 49.609375 66.109375 42.828125 66.109375  Q 29.4375 66.109375 22.71875 58.640625  Q 16.015625 51.171875 16.015625 36.375  Q 16.015625 21.625 22.71875 14.15625  Q 29.4375 6.6875 42.828125 6.6875  Q 48.046875 6.6875 52.140625 7.59375  Q 56.25 8.5 59.515625 10.40625  z "
             id="DejaVuSans-71" />
          <path
             d="M 19.671875 34.8125  L 19.671875 8.109375  L 35.5 8.109375  Q 43.453125 8.109375 47.28125 11.40625  Q 51.125 14.703125 51.125 21.484375  Q 51.125 28.328125 47.28125 31.5625  Q 43.453125 34.8125 35.5 34.8125  z M 19.671875 64.796875  L 19.671875 42.828125  L 34.28125 42.828125  Q 41.5 42.828125 45.03125 45.53125  Q 48.578125 48.25 48.578125 53.8125  Q 48.578125 59.328125 45.03125 62.0625  Q 41.5 64.796875 34.28125 64.796875  z M 9.8125 72.90625  L 35.015625 72.90625  Q 46.296875 72.90625 52.390625 68.21875  Q 58.5 63.53125 58.5 54.890625  Q 58.5 48.1875 55.375 44.234375  Q 52.25 40.28125 46.1875 39.3125  Q 53.46875 37.75 57.5 32.78125  Q 61.53125 27.828125 61.53125 20.40625  Q 61.53125 10.640625 54.890625 5.3125  Q 48.25 0 35.984375 0  L 9.8125 0  z "
             id="DejaVuSans-66" />
        </defs>
        <g
           transform="translate(458.823404 45.993522)scale(0.12 -0.12)"
           id="g167">
          <use
             xlink:href="#DejaVuSans-88"
             id="use153" />
          <use
             x="68.505859"
             xlink:href="#DejaVuSans-71"
             id="use155" />
          <use
             x="145.996094"
             xlink:href="#DejaVuSans-66"
             id="use157" />
          <use
             x="214.599609"
             xlink:href="#DejaVuSans-111"
             id="use159" />
          <use
             x="275.78125"
             xlink:href="#DejaVuSans-111"
             id="use161" />
          <use
             x="336.962891"
             xlink:href="#DejaVuSans-115"
             id="use163" />
          <use
             x="389.0625"
             xlink:href="#DejaVuSans-116"
             id="use165" />
        </g>
      </g>
      <g
         id="text_10">
        <!-- LightGBM -->
        <defs
           id="defs175">
          <path
             d="M 9.8125 72.90625  L 19.671875 72.90625  L 19.671875 8.296875  L 55.171875 8.296875  L 55.171875 0  L 9.8125 0  z "
             id="DejaVuSans-76" />
          <path
             d="M 9.421875 54.6875  L 18.40625 54.6875  L 18.40625 0  L 9.421875 0  z M 9.421875 75.984375  L 18.40625 75.984375  L 18.40625 64.59375  L 9.421875 64.59375  z "
             id="DejaVuSans-105" />
          <path
             d="M 45.40625 27.984375  Q 45.40625 37.75 41.375 43.109375  Q 37.359375 48.484375 30.078125 48.484375  Q 22.859375 48.484375 18.828125 43.109375  Q 14.796875 37.75 14.796875 27.984375  Q 14.796875 18.265625 18.828125 12.890625  Q 22.859375 7.515625 30.078125 7.515625  Q 37.359375 7.515625 41.375 12.890625  Q 45.40625 18.265625 45.40625 27.984375  z M 54.390625 6.78125  Q 54.390625 -7.171875 48.1875 -13.984375  Q 42 -20.796875 29.203125 -20.796875  Q 24.46875 -20.796875 20.265625 -20.09375  Q 16.0625 -19.390625 12.109375 -17.921875  L 12.109375 -9.1875  Q 16.0625 -11.328125 19.921875 -12.34375  Q 23.78125 -13.375 27.78125 -13.375  Q 36.625 -13.375 41.015625 -8.765625  Q 45.40625 -4.15625 45.40625 5.171875  L 45.40625 9.625  Q 42.625 4.78125 38.28125 2.390625  Q 33.9375 0 27.875 0  Q 17.828125 0 11.671875 7.65625  Q 5.515625 15.328125 5.515625 27.984375  Q 5.515625 40.671875 11.671875 48.328125  Q 17.828125 56 27.875 56  Q 33.9375 56 38.28125 53.609375  Q 42.625 51.21875 45.40625 46.390625  L 45.40625 54.6875  L 54.390625 54.6875  z "
             id="DejaVuSans-103" />
          <path
             d="M 54.890625 33.015625  L 54.890625 0  L 45.90625 0  L 45.90625 32.71875  Q 45.90625 40.484375 42.875 44.328125  Q 39.84375 48.1875 33.796875 48.1875  Q 26.515625 48.1875 22.3125 43.546875  Q 18.109375 38.921875 18.109375 30.90625  L 18.109375 0  L 9.078125 0  L 9.078125 75.984375  L 18.109375 75.984375  L 18.109375 46.1875  Q 21.34375 51.125 25.703125 53.5625  Q 30.078125 56 35.796875 56  Q 45.21875 56 50.046875 50.171875  Q 54.890625 44.34375 54.890625 33.015625  z "
             id="DejaVuSans-104" />
          <path
             d="M 9.8125 72.90625  L 24.515625 72.90625  L 43.109375 23.296875  L 61.8125 72.90625  L 76.515625 72.90625  L 76.515625 0  L 66.890625 0  L 66.890625 64.015625  L 48.09375 14.015625  L 38.1875 14.015625  L 19.390625 64.015625  L 19.390625 0  L 9.8125 0  z "
             id="DejaVuSans-77" />
        </defs>
        <g
           transform="translate(269.194595 507.856288)scale(0.12 -0.12)"
           id="g193">
          <use
             xlink:href="#DejaVuSans-76"
             id="use177" />
          <use
             x="55.712891"
             xlink:href="#DejaVuSans-105"
             id="use179" />
          <use
             x="83.496094"
             xlink:href="#DejaVuSans-103"
             id="use181" />
          <use
             x="146.972656"
             xlink:href="#DejaVuSans-104"
             id="use183" />
          <use
             x="210.351562"
             xlink:href="#DejaVuSans-116"
             id="use185" />
          <use
             x="249.560547"
             xlink:href="#DejaVuSans-71"
             id="use187" />
          <use
             x="327.050781"
             xlink:href="#DejaVuSans-66"
             id="use189" />
          <use
             x="395.654297"
             xlink:href="#DejaVuSans-77"
             id="use191" />
        </g>
      </g>
    </g>
  </g>
  <defs
     id="defs201">
    <clipPath
       id="p345a2e76e6">
      <rect
         height="516.815071"
         width="558"
         x="7.2"
         y="7.2"
         id="rect198" />
    </clipPath>
  </defs>
</svg>
